<svg width="68" height="39" viewBox="0 0 68 39" fill="none" xmlns="http://www.w3.org/2000/svg">
<path d="M60.8356 1.30908H8.16442C4.93036 1.30908 2.30859 3.93072 2.30859 7.16478V32.7699H12.1594H14.8326C14.8326 28.9752 17.8467 25.8991 21.5647 25.8991C25.2827 25.8991 28.2967 28.9752 28.2967 32.7699H49.1994C49.1994 28.9752 52.2135 25.8991 55.9315 25.8991C59.6496 25.8991 62.6637 28.9752 62.6637 32.7699H66.6914V7.16478C66.6914 3.93072 64.0696 1.30908 60.8356 1.30908Z" fill="white"/>
<mask id="mask0" mask-type="alpha" maskUnits="userSpaceOnUse" x="1" y="20" width="48" height="12">
<path d="M1 20H48.8748V32H1V20Z" fill="#C4C4C4"/>
</mask>
<g mask="url(#mask0)">
<mask id="mask1" mask-type="alpha" maskUnits="userSpaceOnUse" x="-40" y="20" width="211" height="12">
<path d="M-39.8008 20H170.782V32H-39.8008V20Z" fill="white"/>
</mask>
<g mask="url(#mask1)">
<path fill-rule="evenodd" clip-rule="evenodd" d="M105.258 34.5817C47.1745 34.533 27.5422 29.9273 27.5422 24.2529C27.5422 18.5786 47.1745 13.9729 105.258 13.9242C104.948 13.924 104.638 13.9238 104.326 13.9238C45.5201 13.9238 25.6777 18.5483 25.6777 24.2529C25.6777 29.9575 45.5201 34.5821 104.326 34.5821C104.638 34.5821 104.948 34.582 105.258 34.5817Z" fill="#FFF21B"/>
<path fill-rule="evenodd" clip-rule="evenodd" d="M105.258 34.5817C47.1745 34.533 27.5422 29.9273 27.5422 24.2529C27.5422 18.5786 47.1745 13.9729 105.258 13.9242C104.948 13.924 104.638 13.9238 104.326 13.9238C45.5201 13.9238 25.6777 18.5483 25.6777 24.2529C25.6777 29.9575 45.5201 34.5821 104.326 34.5821C104.638 34.5821 104.948 34.582 105.258 34.5817Z" fill="#FFF21B"/>
<path fill-rule="evenodd" clip-rule="evenodd" d="M14.6768 32C15.558 31.3447 15.8064 30.4928 15.8064 29.3873C15.8064 26.2522 13.8073 21.9655 1.04688 20H26.8919C24.5845 21.3287 23.5389 22.7607 23.5389 24.2532C23.5389 27.1738 27.5434 29.8625 37.171 32H14.6768Z" fill="#ED3237"/>
</g>
</g>
<path d="M48.8945 7.28613H38.4258V32.7802H48.8945V7.28613Z" fill="#9F9F9F"/>
<path d="M33.1914 6.54297H25.8633V13.8711H33.1914V6.54297Z" fill="#FFF21B"/>
<path d="M21.5645 37.1953C24.0217 37.1953 26.0137 35.2033 26.0137 32.7461C26.0137 30.2889 24.0217 28.2969 21.5645 28.2969C19.1072 28.2969 17.1152 30.2889 17.1152 32.7461C17.1152 35.2033 19.1072 37.1953 21.5645 37.1953Z" fill="#9F9F9F"/>
<path d="M55.9307 37.1953C58.3879 37.1953 60.3799 35.2033 60.3799 32.7461C60.3799 30.2889 58.3879 28.2969 55.9307 28.2969C53.4734 28.2969 51.4814 30.2889 51.4814 32.7461C51.4814 35.2033 53.4734 37.1953 55.9307 37.1953Z" fill="#9F9F9F"/>
<path d="M66.2988 7.2749H54.1289V19.0411H66.2007L66.2988 7.2749Z" fill="#FFF21B"/>
<path d="M20.6289 6.54297H13.3008V13.8711H20.6289V6.54297Z" fill="#FFF21B"/>
<path d="M8.06641 6.54297H2.30859V13.8711H8.06641V6.54297Z" fill="#FFF21B"/>
<path d="M21.5645 26.9883C18.3895 26.9883 15.8066 29.5712 15.8066 32.7461C15.8066 35.921 18.3895 38.5039 21.5645 38.5039C24.7394 38.5039 27.3223 35.921 27.3223 32.7461C27.3223 29.5712 24.7394 26.9883 21.5645 26.9883ZM21.5645 35.8867C19.8328 35.8867 18.4238 34.4778 18.4238 32.7461C18.4238 31.0144 19.8328 29.6055 21.5645 29.6055C23.2961 29.6055 24.7051 31.0144 24.7051 32.7461C24.7051 34.4778 23.2961 35.8867 21.5645 35.8867Z" fill="black"/>
<path d="M60.8355 0.000488281H54.1288C53.406 0.000488281 52.8202 0.586346 52.8202 1.30908C52.8202 2.03182 53.406 2.61768 54.1288 2.61768H60.8355C62.928 2.61768 64.6937 4.03881 65.2212 5.96637H54.1288C53.406 5.96637 52.8202 6.55222 52.8202 7.27496V19.0412C52.8202 19.7639 53.406 20.3498 54.1288 20.3498H65.3827V31.4616H61.543C60.9575 28.9034 58.6646 26.9884 55.9315 26.9884C53.1984 26.9884 50.9055 28.9033 50.32 31.4616H50.203V7.28648C50.203 6.56374 49.6171 5.97788 48.8944 5.97788H38.4257C37.7029 5.97788 37.1171 6.56374 37.1171 7.28648V17.7974H12.8208C12.0981 17.7974 11.5122 18.3832 11.5122 19.106C11.5122 19.8287 12.0981 20.4146 12.8208 20.4146H37.1171V31.4613H26.8086C26.0859 31.4613 25.5 32.0472 25.5 32.7699C25.5 33.4926 26.0859 34.0785 26.8086 34.0785H50.331C50.934 36.6127 53.2153 38.5038 55.9315 38.5038C58.6478 38.5038 60.929 36.6127 61.532 34.0785H66.6913C67.414 34.0785 67.9999 33.4926 67.9999 32.7699V7.16491C67.9999 3.21439 64.786 0.000488281 60.8355 0.000488281ZM39.7343 8.59507H47.5858V18.725H46.7587C46.0359 18.725 45.4501 19.3109 45.4501 20.0336C45.4501 20.7564 46.0359 21.3422 46.7587 21.3422H47.5858V31.4613H39.7343V8.59507ZM55.9314 35.8867C54.1997 35.8867 52.7907 34.4777 52.7907 32.7461C52.7907 31.0144 54.1997 29.6055 55.9314 29.6055C57.663 29.6055 59.072 31.0144 59.072 32.7461C59.072 34.4777 57.6632 35.8867 55.9314 35.8867ZM55.4374 17.7325V8.58342H65.3827V17.7325H55.4374Z" fill="black"/>
<path d="M48.8945 2.61719C49.2387 2.61719 49.5763 2.47717 49.8197 2.23377C50.0631 1.99037 50.2031 1.65275 50.2031 1.30859C50.2031 0.964434 50.0631 0.626816 49.8197 0.383418C49.5763 0.14002 49.2387 0 48.8945 0C48.5504 0 48.2128 0.14002 47.9694 0.383418C47.726 0.626816 47.5859 0.964434 47.5859 1.30859C47.5859 1.65275 47.726 1.99037 47.9694 2.23377C48.2128 2.47717 48.5504 2.61719 48.8945 2.61719Z" fill="black"/>
<path d="M16.7227 31.4619H3.14844V15.1807H7.59766C8.32039 15.1807 8.90625 14.5948 8.90625 13.8721V6.54395C8.90625 5.82121 8.32039 5.23535 7.59766 5.23535H3.57949C4.3068 3.69043 5.8779 2.61816 7.69554 2.61816H43.1914C43.9141 2.61816 44.5 2.03231 44.5 1.30957C44.5 0.586834 43.9141 0.000976562 43.1914 0.000976562H7.69567C4.10829 0.000976562 1.12875 2.65153 0.611336 6.09706C0.560432 6.23669 0.53125 6.38678 0.53125 6.54395V32.7704C0.53125 33.4931 1.11711 34.079 1.83984 34.079H16.7227C17.4454 34.079 18.0312 33.4931 18.0312 32.7704C18.0312 32.0476 17.4454 31.4619 16.7227 31.4619ZM6.28906 12.5635H3.14844V7.85254H6.28906V12.5635Z" fill="black"/>
<path d="M8.06641 17.7969C7.72225 17.7969 7.38463 17.9369 7.14123 18.1803C6.89783 18.4237 6.75781 18.7613 6.75781 19.1055C6.75781 19.4509 6.89783 19.7872 7.14123 20.0306C7.38463 20.2754 7.72225 20.4141 8.06641 20.4141C8.41057 20.4141 8.74818 20.2754 8.99158 20.0306C9.23498 19.7872 9.375 19.4496 9.375 19.1055C9.375 18.7613 9.23498 18.4237 8.99158 18.1803C8.74818 17.9369 8.41057 17.7969 8.06641 17.7969Z" fill="black"/>
<path d="M25.8633 5.23486C25.1405 5.23486 24.5547 5.82072 24.5547 6.54346V13.8716C24.5547 14.5943 25.1405 15.1802 25.8633 15.1802H33.1914C33.9141 15.1802 34.5 14.5943 34.5 13.8716V6.54346C34.5 5.82072 33.9141 5.23486 33.1914 5.23486H25.8633ZM31.8828 12.563H27.1719V7.85205H31.8828V12.563Z" fill="black"/>
<path d="M13.3008 5.23486C12.578 5.23486 11.9922 5.82072 11.9922 6.54346V13.8716C11.9922 14.5943 12.578 15.1802 13.3008 15.1802H20.6289C21.3516 15.1802 21.9375 14.5943 21.9375 13.8716V6.54346C21.9375 5.82072 21.3516 5.23486 20.6289 5.23486H13.3008ZM19.3203 12.563H14.6094V7.85205H19.3203V12.563Z" fill="black"/>
</svg>
